<svg width="24" height="24" viewBox="0 0 24 24" fill="none" xmlns="http://www.w3.org/2000/svg">
<path d="M20.367 19.5H16C15.858 19.5 15.739 19.4523 15.643 19.357C15.547 19.2617 15.4993 19.1427 15.5 19C15.5007 18.8573 15.5483 18.7383 15.643 18.643C15.7377 18.5477 15.8567 18.5 16 18.5H20.367L18.64 16.734C18.5467 16.6407 18.5033 16.5273 18.51 16.394C18.5167 16.2593 18.5683 16.1433 18.665 16.046C18.7583 15.9527 18.873 15.906 19.009 15.906C19.145 15.906 19.26 15.9527 19.354 16.046L21.723 18.435C21.885 18.5963 21.966 18.7847 21.966 19C21.966 19.2153 21.885 19.404 21.723 19.566L19.335 21.954C19.2417 22.0473 19.1277 22.0917 18.993 22.087C18.8583 22.0823 18.7427 22.0313 18.646 21.934C18.5527 21.8407 18.506 21.7293 18.506 21.6C18.506 21.4707 18.5527 21.3593 18.646 21.266L20.367 19.5ZM5.616 20C5.15533 20 4.771 19.846 4.463 19.538C4.155 19.23 4.00067 18.8453 4 18.384V5.616C4 5.15533 4.15433 4.771 4.463 4.463C4.77167 4.155 5.156 4.00067 5.616 4H18.385C18.845 4 19.2293 4.15433 19.538 4.463C19.8467 4.77167 20.0007 5.156 20 5.616V12.802C20 12.9673 19.9383 13.1007 19.815 13.202C19.691 13.3033 19.5463 13.3483 19.381 13.337C18.645 13.2723 17.9377 13.3563 17.259 13.589C16.581 13.8223 15.9453 14.1803 15.352 14.663L12.689 12L15.204 9.484C15.2973 9.39067 15.344 9.27633 15.344 9.141C15.344 9.00567 15.2973 8.89067 15.204 8.796C15.1107 8.70133 14.996 8.65467 14.86 8.656C14.724 8.65733 14.6093 8.704 14.516 8.796L12 11.312L9.485 8.796C9.39167 8.70267 9.28 8.656 9.15 8.656C9.02 8.656 8.90867 8.70267 8.816 8.796C8.72333 8.88933 8.67633 9.00433 8.675 9.141C8.67367 9.27767 8.72033 9.39233 8.815 9.485L11.313 12L8.797 14.516C8.70367 14.6093 8.66033 14.7207 8.667 14.85C8.673 14.9793 8.723 15.091 8.817 15.185C8.91033 15.2783 9.02467 15.325 9.16 15.325C9.29533 15.325 9.41033 15.2783 9.505 15.185L12 12.689L14.664 15.352C14.1807 15.9453 13.8257 16.5813 13.599 17.26C13.3723 17.9387 13.285 18.6453 13.337 19.38C13.3443 19.546 13.2983 19.691 13.199 19.815C13.0997 19.9383 12.9673 20 12.802 20H5.616Z" fill="#88A84B"/>
</svg>
