<svg width="326" height="100" viewBox="0 0 326 100" fill="none" xmlns="http://www.w3.org/2000/svg">
<g clip-path="url(#clip0_197_1226)">
<path d="M100.164 31.1822L99.0411 34.6478L96.4328 42.4211L92.7739 53.498L89.1512 64.3482L85.4198 75.7167L82.3405 85.077L81.7246 86.9231C81.2174 88.4454 79.2974 88.8017 77.5223 88.8017H59.7711C56.2933 88.8017 55.2427 88.7045 54.1196 85.9838L49.8811 75.6519L48.432 72.1215L45.2802 64.5749L42.3821 57.6114L40.6794 53.498L36.1148 42.3887L32.4921 33.6762L31.2966 30.7936L28.0724 22.9231C27.7464 22.1134 28.4347 21.2389 29.1954 20.9474L30.717 20.3644H47.8161C48.0335 20.3644 48.5769 20.6235 48.758 20.6559C51.5475 21.2713 51.9098 21.8867 52.7068 23.9596L55.6412 31.4737L59.7348 41.9353L60.3145 43.3928L64.2994 53.4656L67.0889 60.5588L68.7554 64.5749C68.8278 64.3158 68.8278 64.1215 68.9003 63.9596L72.3418 53.6276L72.7403 52.2025L76.0008 42.3563L79.5872 31.4737L82.5578 22.6964C83.065 21.2065 85.1662 20.332 85.7096 20.332H100.237L101.686 21.0122C103.171 21.6924 102.845 22.9879 102.41 24.3806L100.164 31.1822Z" fill="white"/>
<path d="M272.895 86.5664C268.113 89.7405 259.237 90.1291 253.405 89.8053C250.47 89.6433 244.094 88.0563 242.174 86.6959L241.305 86.0806C238.986 84.4287 236.378 83.1656 234.422 81.2223C232.683 79.4733 231.125 77.6271 230.038 75.5219C228.589 72.7688 227.575 69.9834 227.14 67.0036C226.126 60.0401 227.466 52.7202 232.284 46.955C233.588 45.4004 235.037 44.0401 236.595 42.6797C236.885 42.4206 237.247 42.032 237.61 41.7729C241.305 39.2142 245.471 37.3032 250.144 36.2992C251.629 35.9753 253.115 35.8133 254.6 35.6514L257.245 35.3275L254.962 31.8619C253.948 30.3073 252.281 28.5583 250.687 27.3923C249.854 26.7769 249.13 26.4206 248.043 25.7729C248.55 25.2546 249.057 24.7688 249.637 24.3802C250.47 23.8619 251.702 23.9591 252.426 24.6069C254.201 26.0968 255.687 27.781 256.955 29.6271C257.462 30.3721 257.788 31.1818 258.223 31.9591L259.925 35.1332C266.845 35.2951 271.12 35.781 276.698 39.2465C277.93 39.9915 278.763 40.8984 279.923 41.9024L279.995 37.6919C279.995 36.9146 280.973 36.0077 281.988 36.0077H295.21C296.478 36.0077 297.964 36.6555 297.964 37.9834V86.8579C297.964 88.121 296.768 88.866 295.428 88.866H282.495C281.046 88.866 280.104 87.6028 280.068 86.5016L279.959 81.5138L277.242 83.7486C276.228 84.5907 274.923 85.2061 273.764 85.9834L272.822 86.5988L272.895 86.5664ZM268.801 77.8538C270.105 77.2385 271.446 76.6555 272.351 75.781L273.076 75.0684C274.96 73.2546 276.952 71.5704 278.22 69.368C279.271 67.4571 279.886 65.5138 280.104 63.4409C280.502 59.7486 279.85 56.9308 278.184 53.5299C277.242 51.619 275.575 50.0968 273.692 48.7688C269.417 45.7891 264.49 45.9834 263.91 45.5623C263.439 45.2384 264.273 44.3316 263.91 43.5542C263.548 42.8417 262.316 43.036 261.845 41.9348C261.483 41.0603 259.418 35.7486 258.186 35.9429C258.186 36.2668 258.186 36.5583 258.223 36.6555L260.106 41.6433C260.722 43.2627 256.665 43.5218 258.259 45.9834C258.657 46.5988 258.259 47.3113 257.534 47.7C254.781 49.1899 252.281 50.9065 250.506 53.2385C246.376 58.6797 245.688 65.287 249.311 71.0522C250.18 72.4449 251.412 73.6433 252.752 74.7445L253.948 75.7486C255.252 76.8498 257.172 77.5947 258.983 78.0158L261.809 78.6959C262.171 78.7931 262.824 79.0522 263.077 79.3113C264.019 80.2182 265.323 80.7688 266.772 80.3478C268.221 79.9267 267.787 78.3721 268.801 77.8862V77.8538Z" fill="white"/>
<path d="M177.219 80.9315L178.125 84.9801C178.306 85.7898 178.306 86.9558 177.292 87.4417C171.749 90.1947 161.968 90.5186 155.773 89.4174C153.309 88.9963 150.991 88.1866 149.034 86.8911C144.977 84.1056 142.767 80.0894 142.079 75.7494C141.934 74.9073 141.717 74.0328 141.68 73.1907L140.666 48.802L134.942 48.9639C133.566 48.9963 132.442 48.1866 132.37 46.9558L132.044 38.8263C132.008 37.6603 132.95 36.6886 134.326 36.6239L140.159 36.3971L139.615 22.9558C139.579 21.8222 141.391 20.7534 141.97 20.7534L156.932 20.2676L158.272 20.9477C158.635 21.2716 159.214 21.9842 159.25 22.5024L159.794 35.7494L173.162 35.3283C174.575 35.2959 175.589 36.2028 175.589 37.4012L175.915 45.5307C175.987 46.6643 174.973 47.636 173.596 47.7008L160.301 48.1542L161.134 68.883C161.171 69.9518 161.388 70.9558 161.533 71.9923C161.968 73.3202 162.837 74.551 164.069 75.4902C166.025 76.9477 171.06 76.4295 173.778 76.1704C174.683 76.0732 176.06 76.2352 176.386 77.1421C176.603 77.7898 176.748 78.5996 176.893 79.3121L177.183 80.9315H177.219Z" fill="white"/>
<path d="M204.607 62.1784V86.9557C204.607 88.0893 203.303 88.8018 202.143 88.8018H186.385C185.08 88.8018 184.03 87.733 184.03 86.5994V38.146C184.03 36.7533 185.117 35.9435 186.638 35.9435H201.853C203.049 35.9435 203.846 36.98 203.918 37.8545V45.1743L205.621 42.3565C207.36 39.4415 211.164 36.98 214.968 36.235C218.482 35.5549 222.068 35.5873 225.763 35.9112C226.669 35.9759 227.756 36.2998 228.154 37.1095C228.408 37.6278 228.227 38.5022 228.046 39.0852L226.995 42.5508L224.64 50.1298C224.387 50.9719 223.481 51.5549 222.467 51.4901L219.424 51.2634C216.091 51.0043 211.599 51.3605 209.026 53.2715C205.875 55.6358 204.643 58.2917 204.643 62.146L204.607 62.1784Z" fill="white"/>
<path d="M124.871 88.8339H110.018C108.46 88.8339 106.975 88.1213 106.975 86.5991V37.7246C106.975 36.7853 108.315 35.9756 109.257 35.9756H125.27C126.501 35.9756 127.371 37.1416 127.371 38.1456V86.5991C127.371 87.8622 126.429 88.8339 124.871 88.8339Z" fill="white"/>
<path d="M120.379 29.8866C126.901 29.8866 132.189 25.4349 132.189 19.9433C132.189 14.4518 126.901 10 120.379 10C113.856 10 108.569 14.4518 108.569 19.9433C108.569 25.4349 113.856 29.8866 120.379 29.8866Z" fill="white"/>
<path d="M268.294 20.4288L270.323 18.8418L272.605 17.1252C270.359 17.8377 268.62 18.8094 266.736 19.943C266.483 20.0726 266.12 20.4612 265.867 20.688C264.889 21.4977 263.874 22.2426 263.005 23.1171C261.157 24.9956 259.853 27.2952 258.875 29.4329C258.802 29.5948 258.404 29.8863 258.331 29.8216C257.353 26.9714 258.259 23.279 259.636 20.526C261.23 17.3519 265.468 14.9552 269.163 13.7568C272.569 12.6556 276.01 11.9106 279.56 11.2305L281.589 10.8418C281.48 11.9754 281.408 12.5584 281.227 13.4653C280.647 16.2183 279.923 20.0078 278.365 22.3398C276.807 24.6718 274.778 26.356 272.061 27.7487C269.779 28.9147 267.388 29.9187 264.744 30.3398L259.563 31.1819C258.585 31.3438 259.817 29.4329 259.889 29.3033C261.302 27.2628 262.751 25.3519 264.635 23.6677L267.461 21.1414L268.258 20.3965L268.294 20.4288Z" fill="white"/>
<path d="M251.557 67.49C251.267 67.6195 250.398 67.2633 250.217 67.0365C249.927 66.6803 249.782 66.0325 250.035 65.7734C250.361 65.4171 251.086 65.1904 251.485 65.2552C252.064 65.3523 252.535 66.0649 252.426 66.5507C252.39 66.8098 251.883 67.3604 251.593 67.49H251.557Z" fill="white"/>
<path d="M258.186 72.899C258.867 72.899 259.418 72.435 259.418 71.8626C259.418 71.2902 258.867 70.8262 258.186 70.8262C257.506 70.8262 256.955 71.2902 256.955 71.8626C256.955 72.435 257.506 72.899 258.186 72.899Z" fill="white"/>
<path d="M255.288 69.1093C255.929 69.1093 256.448 68.6743 256.448 68.1377C256.448 67.601 255.929 67.166 255.288 67.166C254.648 67.166 254.129 67.601 254.129 68.1377C254.129 68.6743 254.648 69.1093 255.288 69.1093Z" fill="white"/>
<path d="M252.752 71.053C253.353 71.053 253.839 70.647 253.839 70.1461C253.839 69.6453 253.353 69.2393 252.752 69.2393C252.152 69.2393 251.666 69.6453 251.666 70.1461C251.666 70.647 252.152 71.053 252.752 71.053Z" fill="white"/>
<path d="M255.071 72.931C255.671 72.931 256.158 72.5249 256.158 72.0241C256.158 71.5232 255.671 71.1172 255.071 71.1172C254.471 71.1172 253.984 71.5232 253.984 72.0241C253.984 72.5249 254.471 72.931 255.071 72.931Z" fill="white"/>
</g>
<defs>
<clipPath id="clip0_197_1226">
<rect width="270" height="80" fill="white" transform="translate(28 10)"/>
</clipPath>
</defs>
</svg>
