<svg width="190" height="100" viewBox="0 0 190 100" fill="none" xmlns="http://www.w3.org/2000/svg">
<g clip-path="url(#clip0_197_1226)">
<path d="M60.0913 38.2384L59.4673 40.4044L58.0183 45.2627L55.9855 52.1858L53.9729 58.9672L51.8999 66.0724L50.1892 71.9226L49.8471 73.0765C49.5653 74.0279 48.4986 74.2506 47.5124 74.2506H37.6506C35.7185 74.2506 35.1349 74.1898 34.5109 72.4894L32.1562 66.0319L31.3511 63.8255L29.6002 59.1089L27.9901 54.7566L27.0442 52.1858L24.5083 45.2425L22.4957 39.7971L21.8315 37.9955L20.0403 33.0765C19.8591 32.5704 20.2415 32.0238 20.6642 31.8416L21.5095 31.4773H31.009C31.1298 31.4773 31.4317 31.6392 31.5323 31.6595C33.082 32.0441 33.2833 32.4287 33.726 33.7242L35.3562 38.4206L37.6305 44.9591L37.9525 45.87L40.1664 52.1655L41.7161 56.5987L42.6419 59.1089C42.6822 58.9469 42.6822 58.8255 42.7224 58.7242L44.6344 52.2667L44.8558 51.3761L46.6671 45.2222L48.6596 38.4206L50.31 32.9348C50.5917 32.0036 51.759 31.457 52.0609 31.457H60.1315L60.9365 31.8821C61.7617 32.3072 61.5806 33.117 61.3391 33.9874L60.0913 38.2384Z" fill="white"/>
<path d="M156.053 72.8544C153.396 74.8382 148.465 75.0811 145.225 74.8786C143.595 74.7774 140.052 73.7855 138.986 72.9353L138.503 72.5507C137.215 71.5183 135.765 70.7289 134.679 69.5143C133.713 68.4212 132.847 67.2673 132.243 65.9515C131.438 64.2309 130.875 62.49 130.633 60.6276C130.07 56.2754 130.814 51.7005 133.491 48.0973C134.216 47.1256 135.021 46.2754 135.886 45.4252C136.047 45.2633 136.248 45.0203 136.45 44.8584C138.503 43.2592 140.817 42.0649 143.413 41.4374C144.239 41.2349 145.064 41.1337 145.889 41.0325L147.358 40.8301L146.09 38.6641C145.527 37.6924 144.601 36.5993 143.715 35.8706C143.252 35.4859 142.85 35.2633 142.246 34.8584C142.528 34.5345 142.81 34.2309 143.132 33.988C143.595 33.6641 144.279 33.7248 144.681 34.1297C145.668 35.0608 146.493 36.1135 147.197 37.2673C147.479 37.7329 147.66 38.239 147.902 38.7248L148.847 40.7086C152.692 40.8098 155.066 41.1135 158.166 43.2795C158.85 43.745 159.313 44.3118 159.957 44.9394L159.997 42.3078C159.997 41.822 160.541 41.2552 161.104 41.2552H168.45C169.155 41.2552 169.98 41.66 169.98 42.49V73.0365C169.98 73.826 169.316 74.2916 168.571 74.2916H161.386C160.581 74.2916 160.058 73.5021 160.038 72.8139L159.977 69.6965L158.468 71.0932C157.904 71.6195 157.18 72.0042 156.536 72.49L156.012 72.8746L156.053 72.8544ZM153.778 67.409C154.503 67.0244 155.248 66.66 155.751 66.1135L156.153 65.6681C157.2 64.5345 158.307 63.4819 159.011 62.1054C159.595 60.911 159.937 59.6965 160.058 58.4009C160.279 56.0932 159.917 54.3321 158.991 52.2066C158.468 51.0123 157.542 50.0608 156.495 49.2309C154.12 47.3685 151.383 47.49 151.061 47.2268C150.8 47.0244 151.263 46.4576 151.061 45.9718C150.86 45.5264 150.176 45.6479 149.914 44.9596C149.713 44.4131 148.566 41.0932 147.881 41.2147C147.881 41.4171 147.881 41.5993 147.902 41.66L148.948 44.7774C149.29 45.7896 147.036 45.9515 147.922 47.49C148.143 47.8746 147.922 48.3199 147.519 48.5629C145.99 49.494 144.601 50.5669 143.615 52.0244C141.32 55.4252 140.938 59.5548 142.95 63.158C143.434 64.0284 144.118 64.7774 144.862 65.4657L145.527 66.0932C146.251 66.7815 147.318 67.2471 148.324 67.5102L149.894 67.9353C150.095 67.9961 150.458 68.158 150.598 68.3199C151.122 68.8867 151.846 69.2309 152.651 68.9677C153.456 68.7046 153.215 67.7329 153.778 67.4293V67.409Z" fill="white"/>
<path d="M102.899 69.332L103.403 71.8623C103.503 72.3684 103.503 73.0972 102.94 73.4008C99.8604 75.1214 94.4264 75.3239 90.9848 74.6356C89.6162 74.3725 88.3282 73.8664 87.2414 73.0567C84.9872 71.3158 83.7595 68.8057 83.3771 66.0931C83.2966 65.5668 83.1759 65.0202 83.1557 64.4939L82.5922 49.251L79.4123 49.3522C78.6475 49.3725 78.0236 48.8664 77.9833 48.0972L77.8022 43.0162C77.7821 42.2874 78.3054 41.6802 79.0701 41.6397L82.3104 41.498L82.0086 33.0972C81.9884 32.3887 82.9947 31.7206 83.3168 31.7206L91.6288 31.417L92.3735 31.8421C92.5748 32.0445 92.8968 32.4899 92.9169 32.8138L93.2188 41.0931L100.645 40.8299C101.43 40.8097 101.994 41.3765 101.994 42.1255L102.175 47.2065C102.215 47.915 101.652 48.5223 100.887 48.5627L93.5006 48.8461L93.9635 61.8016C93.9836 62.4696 94.1044 63.0972 94.1849 63.7449C94.4264 64.5749 94.9094 65.3441 95.5937 65.9312C96.6805 66.8421 99.478 66.5182 100.987 66.3563C101.491 66.2955 102.255 66.3967 102.437 66.9636C102.557 67.3684 102.638 67.8745 102.718 68.3198L102.879 69.332H102.899Z" fill="white"/>
<path d="M118.115 57.6109V73.0967C118.115 73.8052 117.39 74.2505 116.746 74.2505H107.991C107.267 74.2505 106.683 73.5825 106.683 72.874V42.5906C106.683 41.7202 107.287 41.2141 108.132 41.2141H116.585C117.249 41.2141 117.692 41.8619 117.732 42.4084V46.9833L118.678 45.2222C119.644 43.4003 121.758 41.8619 123.871 41.3963C125.823 40.9712 127.816 40.9914 129.869 41.1939C130.372 41.2343 130.975 41.4368 131.197 41.9428C131.338 42.2667 131.237 42.8133 131.136 43.1777L130.553 45.3437L129.245 50.0805C129.104 50.6068 128.601 50.9712 128.037 50.9307L126.346 50.789C124.495 50.6271 121.999 50.8497 120.57 52.0441C118.819 53.5218 118.135 55.1817 118.135 57.5906L118.115 57.6109Z" fill="white"/>
<path d="M73.8173 74.2708H65.5656C64.7002 74.2708 63.875 73.8255 63.875 72.874V42.3275C63.875 41.7404 64.6197 41.2344 65.1429 41.2344H74.0387C74.723 41.2344 75.206 41.9631 75.206 42.5906V72.874C75.206 73.6635 74.6827 74.2708 73.8173 74.2708Z" fill="white"/>
<path d="M71.3216 37.4291C74.9452 37.4291 77.8827 34.6468 77.8827 31.2146C77.8827 27.7824 74.9452 25 71.3216 25C67.698 25 64.7605 27.7824 64.7605 31.2146C64.7605 34.6468 67.698 37.4291 71.3216 37.4291Z" fill="white"/>
<path d="M153.497 31.5183L154.624 30.5264L155.892 29.4535C154.644 29.8988 153.678 30.5061 152.631 31.2146C152.49 31.2956 152.289 31.5385 152.148 31.6802C151.605 32.1863 151.041 32.6519 150.558 33.1984C149.532 34.3725 148.807 35.8098 148.264 37.1458C148.224 37.247 148.002 37.4292 147.962 37.3887C147.418 35.6073 147.922 33.2996 148.686 31.579C149.572 29.5952 151.927 28.0972 153.98 27.3482C155.871 26.66 157.783 26.1944 159.756 25.7693L160.883 25.5264C160.822 26.2349 160.782 26.5992 160.682 27.166C160.36 28.8867 159.957 31.2551 159.092 32.7126C158.226 34.1701 157.099 35.2227 155.59 36.0932C154.322 36.8219 152.993 37.4494 151.524 37.7126L148.646 38.2389C148.103 38.3401 148.787 37.1458 148.827 37.0648C149.612 35.7895 150.417 34.5952 151.464 33.5426L153.034 31.9636L153.476 31.498L153.497 31.5183Z" fill="white"/>
<path d="M144.198 60.931C144.037 61.012 143.554 60.7893 143.454 60.6476C143.293 60.4249 143.212 60.0201 143.353 59.8581C143.534 59.6355 143.937 59.4938 144.158 59.5342C144.48 59.595 144.742 60.0403 144.681 60.344C144.661 60.5059 144.379 60.85 144.218 60.931H144.198Z" fill="white"/>
<path d="M147.881 64.3121C148.259 64.3121 148.566 64.0221 148.566 63.6644C148.566 63.3066 148.259 63.0166 147.881 63.0166C147.503 63.0166 147.197 63.3066 147.197 63.6644C147.197 64.0221 147.503 64.3121 147.881 64.3121Z" fill="white"/>
<path d="M146.271 61.9431C146.627 61.9431 146.915 61.6712 146.915 61.3358C146.915 61.0004 146.627 60.7285 146.271 60.7285C145.916 60.7285 145.627 61.0004 145.627 61.3358C145.627 61.6712 145.916 61.9431 146.271 61.9431Z" fill="white"/>
<path d="M144.862 63.158C145.196 63.158 145.466 62.9042 145.466 62.5912C145.466 62.2782 145.196 62.0244 144.862 62.0244C144.529 62.0244 144.259 62.2782 144.259 62.5912C144.259 62.9042 144.529 63.158 144.862 63.158Z" fill="white"/>
<path d="M146.151 64.3318C146.484 64.3318 146.754 64.0781 146.754 63.765C146.754 63.452 146.484 63.1982 146.151 63.1982C145.817 63.1982 145.547 63.452 145.547 63.765C145.547 64.0781 145.817 64.3318 146.151 64.3318Z" fill="white"/>
</g>
<defs>
<clipPath id="clip0_197_1226">
<rect width="150" height="50" fill="white" transform="translate(20 25)"/>
</clipPath>
</defs>
</svg>
