<svg width="294" height="90" viewBox="0 0 294 90" fill="none" xmlns="http://www.w3.org/2000/svg">
<g clip-path="url(#clip0_198_1364)">
<path d="M98.1277 28.534L97.2543 31.5664L95.2255 38.368L92.3797 48.0603L89.5621 57.5542L86.6599 67.5016L84.2649 75.6919L83.7859 77.3072C83.3914 78.6392 81.898 78.951 80.5174 78.951H66.7109C64.0059 78.951 63.1888 78.8659 62.3153 76.4854L59.0187 67.4449L57.8916 64.3558L55.4402 57.7526L53.1861 51.6595L51.8618 48.0603L48.3116 38.3396L45.4939 30.7162L44.5641 28.1939L42.0564 21.3072C41.8028 20.5987 42.3381 19.8336 42.9298 19.5785L44.1132 19.0684H57.4126C57.5816 19.0684 58.0043 19.2951 58.1452 19.3234C60.3148 19.8619 60.5965 20.4004 61.2164 22.2141L63.4987 28.789L66.6827 37.9429L67.1335 39.2182L70.2329 48.0319L72.4025 54.2384L73.6986 57.7526C73.755 57.5259 73.755 57.3558 73.8114 57.2141L76.4881 48.1736L76.7981 46.9267L79.334 38.3113L82.1234 28.789L84.4339 21.1089C84.8284 19.8052 86.4626 19.04 86.8853 19.04H98.1841L99.3112 19.6352C100.466 20.2303 100.213 21.3639 99.8747 22.5825L98.1277 28.534Z" fill="#88A84B"/>
<path d="M232.474 76.9957C228.754 79.773 221.851 80.1131 217.315 79.8297C215.032 79.688 210.073 78.2994 208.58 77.1091L207.904 76.5706C206.1 75.1253 204.072 74.02 202.55 72.3196C201.198 70.7892 199.986 69.1738 199.141 67.3317C198.014 64.9228 197.225 62.4856 196.887 59.8783C196.098 53.7852 197.14 47.3803 200.888 42.3358C201.902 40.9755 203.029 39.7852 204.241 38.5949C204.466 38.3682 204.748 38.0281 205.03 37.8014C207.904 35.5625 211.144 33.8904 214.779 33.0119C215.934 32.7285 217.089 32.5868 218.244 32.4451L220.301 32.1617L218.526 29.1293C217.737 27.769 216.441 26.2386 215.201 25.2184C214.553 24.6799 213.99 24.3682 213.145 23.8014C213.539 23.3479 213.933 22.9228 214.384 22.5828C215.032 22.1293 215.99 22.2143 216.554 22.7811C217.935 24.0848 219.09 25.5585 220.076 27.1738C220.47 27.8257 220.724 28.5342 221.062 29.2143L222.386 31.9917C227.768 32.1334 231.093 32.5585 235.432 35.5908C236.39 36.2427 237.038 37.0362 237.94 37.9147L237.996 34.2305C237.996 33.5504 238.757 32.7568 239.546 32.7568H249.83C250.817 32.7568 251.972 33.3236 251.972 34.4856V77.2508C251.972 78.356 251.042 79.0079 249.999 79.0079H239.94C238.813 79.0079 238.081 77.9026 238.053 76.939L237.968 72.5747L235.855 74.5301C235.066 75.267 234.052 75.8054 233.15 76.4856L232.417 77.024L232.474 76.9957ZM229.29 69.3722C230.304 68.8338 231.347 68.3236 232.051 67.5585L232.615 66.935C234.08 65.3479 235.629 63.8743 236.616 61.9471C237.433 60.2751 237.912 58.5747 238.081 56.7609C238.391 53.5301 237.884 51.0645 236.587 48.0888C235.855 46.4168 234.559 45.0848 233.094 43.9228C229.769 41.3155 225.937 41.4856 225.486 41.1172C225.12 40.8338 225.768 40.0402 225.486 39.3601C225.204 38.7366 224.246 38.9066 223.88 37.9431C223.598 37.1779 221.992 32.5301 221.034 32.7002C221.034 32.9836 221.034 33.2386 221.062 33.3236L222.527 37.688C223.006 39.105 219.851 39.3317 221.09 41.4856C221.4 42.024 221.09 42.6475 220.527 42.9876C218.385 44.2913 216.441 45.7933 215.061 47.8338C211.848 52.5949 211.313 58.3763 214.131 63.4208C214.807 64.6394 215.765 65.688 216.807 66.6516L217.737 67.5301C218.752 68.4937 220.245 69.1455 221.654 69.5139L223.852 70.1091C224.133 70.1941 224.641 70.4208 224.838 70.6475C225.57 71.4411 226.585 71.9228 227.712 71.5544C228.839 71.186 228.501 69.8257 229.29 69.4006V69.3722Z" fill="#FFCC32"/>
<path d="M158.059 72.0644L158.764 75.6069C158.905 76.3154 158.905 77.3356 158.116 77.7607C153.805 80.1696 146.197 80.453 141.379 79.4895C139.463 79.1211 137.659 78.4125 136.138 77.2789C132.982 74.8417 131.263 71.3275 130.728 67.53C130.615 66.7931 130.446 66.0279 130.418 65.2911L129.629 43.951L125.177 44.0927C124.107 44.121 123.233 43.4125 123.177 42.3356L122.923 35.2223C122.895 34.202 123.628 33.3518 124.698 33.2951L129.235 33.0968L128.812 21.3356C128.784 20.3437 130.193 19.4085 130.643 19.4085L142.28 18.9834L143.323 19.5785C143.605 19.8619 144.056 20.4854 144.084 20.9389L144.506 32.53L154.904 32.1615C156.002 32.1332 156.791 32.9267 156.791 33.9753L157.045 41.0887C157.101 42.0806 156.312 42.9308 155.242 42.9874L144.901 43.3842L145.549 61.5219C145.577 62.4571 145.746 63.3356 145.859 64.2425C146.197 65.4044 146.873 66.4814 147.831 67.3032C149.353 68.5785 153.269 68.1251 155.383 67.8984C156.087 67.8134 157.158 67.9551 157.411 68.7486C157.58 69.3154 157.693 70.0239 157.806 70.6474L158.031 72.0644H158.059Z" fill="#88A84B"/>
<path d="M179.361 55.6562V77.3363C179.361 78.3283 178.346 78.9517 177.445 78.9517H165.188C164.174 78.9517 163.357 78.0165 163.357 77.0246V34.6278C163.357 33.4092 164.202 32.7007 165.385 32.7007H177.219C178.149 32.7007 178.769 33.6076 178.825 34.3728V40.7776L180.15 38.3121C181.502 35.7614 184.461 33.6076 187.419 32.9558C190.152 32.3606 192.942 32.389 195.816 32.6724C196.52 32.7291 197.366 33.0125 197.676 33.721C197.873 34.1744 197.732 34.9396 197.591 35.4497L196.774 38.4821L194.942 45.1137C194.745 45.8505 194.041 46.3606 193.252 46.304L190.885 46.1056C188.293 45.8789 184.799 46.1906 182.798 47.8627C180.347 49.9315 179.389 52.2554 179.389 55.6278L179.361 55.6562Z" fill="#88A84B"/>
<path d="M117.344 78.9795H105.792C104.58 78.9795 103.425 78.356 103.425 77.0241V34.2589C103.425 33.437 104.467 32.7285 105.2 32.7285H117.654C118.612 32.7285 119.288 33.7488 119.288 34.6273V77.0241C119.288 78.1293 118.556 78.9795 117.344 78.9795Z" fill="#88A84B"/>
<path d="M113.85 27.4008C118.923 27.4008 123.036 23.5055 123.036 18.7004C123.036 13.8953 118.923 10 113.85 10C108.777 10 104.665 13.8953 104.665 18.7004C104.665 23.5055 108.777 27.4008 113.85 27.4008Z" fill="#FFCC32"/>
<path d="M228.895 19.126L230.473 17.7373L232.248 16.2353C230.501 16.8588 229.149 17.709 227.684 18.7009C227.486 18.8142 227.205 19.1543 227.007 19.3527C226.247 20.0612 225.458 20.713 224.781 21.4782C223.344 23.1219 222.33 25.1341 221.569 27.0045C221.513 27.1462 221.203 27.4013 221.147 27.3446C220.386 24.8507 221.09 21.6199 222.161 19.211C223.401 16.4337 226.697 14.3365 229.571 13.2879C232.22 12.3243 234.897 11.6725 237.658 11.0774L239.236 10.7373C239.151 11.7292 239.095 12.2393 238.954 13.0329C238.503 15.4418 237.94 18.7575 236.728 20.798C235.517 22.8385 233.939 24.3122 231.826 25.5308C230.05 26.5511 228.191 27.4296 226.134 27.798L222.105 28.5349C221.344 28.6766 222.302 27.0045 222.358 26.8912C223.457 25.1057 224.584 23.4337 226.049 21.96L228.247 19.7495L228.867 19.0976L228.895 19.126Z" fill="#FFCC32"/>
<path d="M215.878 60.304C215.652 60.4173 214.976 60.1056 214.835 59.9072C214.61 59.5955 214.497 59.0287 214.694 58.802C214.948 58.4902 215.511 58.2918 215.821 58.3485C216.272 58.4335 216.638 59.057 216.554 59.4821C216.526 59.7088 216.131 60.1906 215.906 60.304H215.878Z" fill="#FFCC32"/>
<path d="M221.034 65.0364C221.563 65.0364 221.992 64.6304 221.992 64.1295C221.992 63.6287 221.563 63.2227 221.034 63.2227C220.505 63.2227 220.076 63.6287 220.076 64.1295C220.076 64.6304 220.505 65.0364 221.034 65.0364Z" fill="#FFCC32"/>
<path d="M218.78 61.7209C219.278 61.7209 219.681 61.3403 219.681 60.8707C219.681 60.4012 219.278 60.0205 218.78 60.0205C218.282 60.0205 217.878 60.4012 217.878 60.8707C217.878 61.3403 218.282 61.7209 218.78 61.7209Z" fill="#FFCC32"/>
<path d="M216.807 63.421C217.274 63.421 217.653 63.0658 217.653 62.6275C217.653 62.1893 217.274 61.834 216.807 61.834C216.341 61.834 215.962 62.1893 215.962 62.6275C215.962 63.0658 216.341 63.421 216.807 63.421Z" fill="#FFCC32"/>
<path d="M218.611 65.0646C219.078 65.0646 219.456 64.7093 219.456 64.2711C219.456 63.8328 219.078 63.4775 218.611 63.4775C218.144 63.4775 217.765 63.8328 217.765 64.2711C217.765 64.7093 218.144 65.0646 218.611 65.0646Z" fill="#FFCC32"/>
</g>
<defs>
<clipPath id="clip0_198_1364">
<rect width="210" height="70" fill="white" transform="translate(42 10)"/>
</clipPath>
</defs>
</svg>
