<svg width="326" height="100" viewBox="0 0 326 100" fill="none" xmlns="http://www.w3.org/2000/svg">
<g clip-path="url(#clip0_288_290)">
<path d="M107.146 31.1822L106.148 34.6478L103.829 42.4211L100.577 53.498L97.3566 64.3482L94.0398 75.7167L91.3026 85.077L90.7552 86.9231C90.3044 88.4454 88.5977 88.8017 87.0198 88.8017H71.2409C68.1495 88.8017 67.2157 88.7045 66.2174 85.9839L62.4498 75.6519L61.1618 72.1215L58.3602 64.5749L55.7841 57.6114L54.2706 53.498L50.2131 42.3887L46.993 33.6762L45.9303 30.7936L43.0643 22.9231C42.7745 22.1134 43.3864 21.2389 44.0626 20.9474L45.4151 20.3644H60.6143C60.8075 20.3644 61.2906 20.6235 61.4516 20.6559C63.9311 21.2713 64.2531 21.8867 64.9616 23.9596L67.5699 31.4737L71.2087 41.9353L71.7239 43.3928L75.2661 53.4656L77.7457 60.5588L79.227 64.5749C79.2914 64.3158 79.2914 64.1215 79.3558 63.9596L82.4149 53.6276L82.7692 52.2025L85.6673 42.3563L88.8553 31.4737L91.4958 22.6964C91.9467 21.2065 93.8144 20.332 94.2974 20.332H107.21L108.498 21.0122C109.819 21.6924 109.529 22.9879 109.142 24.3806L107.146 31.1822Z" fill="#80A33F"/>
<path d="M260.684 86.5664C256.434 89.7405 248.544 90.1291 243.36 89.8053C240.751 89.6433 235.084 88.0563 233.377 86.6959L232.604 86.0806C230.543 84.4287 228.225 83.1656 226.486 81.2223C224.94 79.4733 223.555 77.6271 222.589 75.5219C221.301 72.7688 220.4 69.9834 220.013 67.0036C219.112 60.0401 220.303 52.7202 224.586 46.955C225.745 45.4004 227.033 44.0401 228.418 42.6797C228.676 42.4206 228.998 42.032 229.32 41.7729C232.604 39.2142 236.307 37.3032 240.461 36.2992C241.782 35.9753 243.102 35.8133 244.422 35.6514L246.773 35.3275L244.744 31.8619C243.843 30.3073 242.361 28.5583 240.944 27.3923C240.204 26.7769 239.56 26.4206 238.594 25.7729C239.045 25.2546 239.495 24.7688 240.011 24.3802C240.751 23.8619 241.846 23.9591 242.49 24.6069C244.068 26.0968 245.388 27.781 246.515 29.6271C246.966 30.3721 247.256 31.1818 247.642 31.9591L249.156 35.1332C255.306 35.2951 259.106 35.781 264.065 39.2465C265.16 39.9915 265.901 40.8984 266.931 41.9024L266.996 37.6919C266.996 36.9146 267.865 36.0077 268.767 36.0077H280.52C281.648 36.0077 282.968 36.6555 282.968 37.9834V86.8579C282.968 88.121 281.905 88.866 280.714 88.866H269.218C267.93 88.866 267.092 87.6028 267.06 86.5016L266.964 81.5138L264.548 83.7486C263.647 84.5907 262.487 85.2061 261.457 85.9834L260.62 86.5988L260.684 86.5664ZM257.045 77.8538C258.205 77.2385 259.396 76.6555 260.201 75.781L260.845 75.0684C262.52 73.2546 264.291 71.5704 265.418 69.368C266.352 67.4571 266.899 65.5138 267.092 63.4409C267.447 59.7486 266.867 56.9308 265.386 53.5299C264.548 51.619 263.067 50.0968 261.393 48.7688C257.593 45.7891 253.213 45.9834 252.698 45.5623C252.279 45.2384 253.02 44.3316 252.698 43.5542C252.376 42.8417 251.281 43.036 250.863 41.9348C250.541 41.0603 248.705 35.7486 247.61 35.9429C247.61 36.2668 247.61 36.5583 247.642 36.6555L249.317 41.6433C249.864 43.2627 246.258 43.5218 247.675 45.9834C248.029 46.5988 247.675 47.3113 247.031 47.7C244.583 49.1899 242.361 50.9065 240.783 53.2385C237.112 58.6797 236.501 65.287 239.721 71.0522C240.494 72.4449 241.588 73.6433 242.78 74.7445L243.843 75.7486C245.002 76.8498 246.709 77.5947 248.319 78.0158L250.83 78.6959C251.152 78.7931 251.732 79.0522 251.957 79.3113C252.795 80.2182 253.954 80.7688 255.242 80.3478C256.53 79.9267 256.144 78.3721 257.045 77.8862V77.8538Z" fill="#FFCC32"/>
<path d="M175.639 80.9315L176.444 84.9801C176.605 85.7898 176.605 86.9558 175.704 87.4417C170.777 90.1947 162.082 90.5186 156.576 89.4174C154.386 88.9963 152.325 88.1866 150.586 86.8911C146.98 84.1056 145.015 80.0894 144.403 75.7494C144.275 74.9073 144.081 74.0328 144.049 73.1907L143.148 48.802L138.06 48.9639C136.836 48.9963 135.838 48.1866 135.773 46.9558L135.484 38.8263C135.451 37.6603 136.289 36.6886 137.512 36.6239L142.697 36.3971L142.214 22.9558C142.182 21.8222 143.792 20.7534 144.307 20.7534L157.606 20.2676L158.798 20.9477C159.12 21.2716 159.635 21.9842 159.667 22.5024L160.15 35.7494L172.033 35.3283C173.288 35.2959 174.19 36.2028 174.19 37.4012L174.48 45.5307C174.544 46.6643 173.643 47.636 172.419 47.7008L160.601 48.1542L161.342 68.883C161.374 69.9518 161.567 70.9558 161.696 71.9923C162.082 73.3202 162.855 74.551 163.95 75.4903C165.689 76.9477 170.165 76.4295 172.58 76.1704C173.385 76.0732 174.609 76.2352 174.899 77.1421C175.092 77.7898 175.221 78.5996 175.349 79.3121L175.607 80.9315H175.639Z" fill="#80A33F"/>
<path d="M199.984 62.1784V86.9557C199.984 88.0893 198.824 88.8018 197.794 88.8018H183.786C182.627 88.8018 181.693 87.733 181.693 86.5994V38.146C181.693 36.7533 182.659 35.9435 184.012 35.9435H197.536C198.599 35.9435 199.308 36.98 199.372 37.8545V45.1743L200.885 42.3565C202.431 39.4415 205.812 36.98 209.193 36.235C212.317 35.5549 215.505 35.5873 218.79 35.9112C219.595 35.9759 220.561 36.2998 220.915 37.1095C221.14 37.6278 220.979 38.5022 220.818 39.0852L219.884 42.5508L217.791 50.1298C217.566 50.9719 216.761 51.5549 215.859 51.4901L213.154 51.2634C210.192 51.0043 206.199 51.3605 203.912 53.2715C201.111 55.6358 200.016 58.2917 200.016 62.146L199.984 62.1784Z" fill="#80A33F"/>
<path d="M129.108 88.8339H115.905C114.52 88.8339 113.2 88.1213 113.2 86.5991V37.7246C113.2 36.7853 114.391 35.9756 115.229 35.9756H129.462C130.557 35.9756 131.33 37.1416 131.33 38.1456V86.5991C131.33 87.8622 130.492 88.8339 129.108 88.8339Z" fill="#80A33F"/>
<path d="M125.115 29.8866C130.912 29.8866 135.612 25.4349 135.612 19.9433C135.612 14.4518 130.912 10 125.115 10C119.317 10 114.617 14.4518 114.617 19.9433C114.617 25.4349 119.317 29.8866 125.115 29.8866Z" fill="#FFCC32"/>
<path d="M256.595 20.4288L258.398 18.8418L260.427 17.1252C258.43 17.8377 256.884 18.8094 255.21 19.943C254.984 20.0726 254.662 20.4612 254.437 20.688C253.568 21.4977 252.666 22.2426 251.893 23.1171C250.251 24.9956 249.092 27.2952 248.222 29.4329C248.158 29.5948 247.803 29.8863 247.739 29.8216C246.87 26.9714 247.675 23.279 248.898 20.526C250.315 17.3519 254.083 14.9552 257.367 13.7568C260.394 12.6556 263.454 11.9106 266.609 11.2305L268.413 10.8418C268.316 11.9754 268.252 12.5584 268.091 13.4653C267.575 16.2183 266.931 20.0078 265.547 22.3398C264.162 24.6718 262.359 26.356 259.944 27.7487C257.915 28.9147 255.789 29.9187 253.439 30.3398L248.834 31.1819C247.964 31.3438 249.059 29.4329 249.124 29.3033C250.38 27.2628 251.668 25.3519 253.342 23.6677L255.854 21.1414L256.562 20.3965L256.595 20.4288Z" fill="#FFCC32"/>
<path d="M241.717 67.49C241.46 67.6195 240.687 67.2633 240.526 67.0365C240.268 66.6803 240.139 66.0325 240.365 65.7734C240.655 65.4171 241.299 65.1904 241.653 65.2552C242.168 65.3523 242.587 66.0649 242.49 66.5507C242.458 66.8098 242.007 67.3604 241.75 67.49H241.717Z" fill="#FFCC32"/>
<path d="M247.61 72.899C248.215 72.899 248.705 72.435 248.705 71.8626C248.705 71.2902 248.215 70.8262 247.61 70.8262C247.006 70.8262 246.515 71.2902 246.515 71.8626C246.515 72.435 247.006 72.899 247.61 72.899Z" fill="#FFCC32"/>
<path d="M245.034 69.1093C245.603 69.1093 246.065 68.6743 246.065 68.1377C246.065 67.601 245.603 67.166 245.034 67.166C244.465 67.166 244.004 67.601 244.004 68.1377C244.004 68.6743 244.465 69.1093 245.034 69.1093Z" fill="#FFCC32"/>
<path d="M242.78 71.053C243.313 71.053 243.746 70.647 243.746 70.1461C243.746 69.6453 243.313 69.2393 242.78 69.2393C242.246 69.2393 241.814 69.6453 241.814 70.1461C241.814 70.647 242.246 71.053 242.78 71.053Z" fill="#FFCC32"/>
<path d="M244.841 72.931C245.374 72.931 245.807 72.5249 245.807 72.0241C245.807 71.5232 245.374 71.1172 244.841 71.1172C244.307 71.1172 243.875 71.5232 243.875 72.0241C243.875 72.5249 244.307 72.931 244.841 72.931Z" fill="#FFCC32"/>
</g>
<defs>
<clipPath id="clip0_288_290">
<rect width="240" height="80" fill="white" transform="translate(43 10)"/>
</clipPath>
</defs>
</svg>
