<svg width="25" height="24" viewBox="0 0 25 24" fill="none" xmlns="http://www.w3.org/2000/svg">
<path d="M22.4302 7.11175C22.446 7.32494 22.446 7.53817 22.446 7.75136C22.446 14.2539 17.2906 21.7463 7.86802 21.7463C4.96509 21.7463 2.26841 20.9391 0 19.5382C0.412451 19.5838 0.808984 19.5991 1.2373 19.5991C3.63257 19.5991 5.83755 18.8224 7.59834 17.4976C5.3458 17.4519 3.45811 16.0356 2.80771 14.0864C3.125 14.132 3.44224 14.1625 3.77539 14.1625C4.2354 14.1625 4.69546 14.1016 5.12373 13.995C2.77603 13.5381 1.01519 11.5585 1.01519 9.16759V9.1067C1.69727 9.47219 2.49048 9.70061 3.33115 9.73103C1.95107 8.84777 1.04692 7.34017 1.04692 5.63458C1.04692 4.72089 1.30068 3.88333 1.74487 3.15236C4.26709 6.13712 8.05835 8.08633 12.3096 8.29956C12.2303 7.93408 12.1827 7.55341 12.1827 7.17269C12.1827 4.462 14.4669 2.25391 17.3064 2.25391C18.7816 2.25391 20.1141 2.84781 21.05 3.8072C22.208 3.59402 23.3184 3.18283 24.302 2.61939C23.9212 3.76155 23.1122 4.72094 22.0494 5.33003C23.0805 5.22348 24.0799 4.94931 24.9999 4.56864C24.3021 5.54322 23.4295 6.4112 22.4302 7.11175Z" fill="white"/>
</svg>
