<svg width="25" height="24" viewBox="0 0 25 24" fill="none" xmlns="http://www.w3.org/2000/svg">
<path d="M23.8566 6.50346C23.5839 5.51804 22.7807 4.74196 21.7609 4.47858C19.9124 4 12.5 4 12.5 4C12.5 4 5.08767 4 3.2391 4.47858C2.21927 4.742 1.41606 5.51804 1.14344 6.50346C0.648132 8.28958 0.648132 12.0162 0.648132 12.0162C0.648132 12.0162 0.648132 15.7427 1.14344 17.5289C1.41606 18.5143 2.21927 19.258 3.2391 19.5214C5.08767 20 12.5 20 12.5 20C12.5 20 19.9123 20 21.7609 19.5214C22.7807 19.258 23.5839 18.5143 23.8566 17.5289C24.3519 15.7427 24.3519 12.0162 24.3519 12.0162C24.3519 12.0162 24.3519 8.28958 23.8566 6.50346ZM10.0757 15.3996V8.63271L16.271 12.0163L10.0757 15.3996Z" fill="black"/>
</svg>
